<mxfile host="app.diagrams.net" modified="2024-10-19T11:22:09.148Z" agent="Mozilla/5.0 (Macintosh; Intel Mac OS X 10_15_7) AppleWebKit/537.36 (KHTML, like Gecko) Chrome/129.0.0.0 Safari/537.36" etag="cTaGlOyx-PjilbKywURK" border="50" scale="3" compressed="false" locked="false" version="24.3.0" type="github">
  <diagram name="Blank" id="YmL12bMKpDGza6XwsDPr">
    <mxGraphModel dx="2394" dy="755" grid="0" gridSize="10" guides="1" tooltips="1" connect="1" arrows="1" fold="1" page="0" pageScale="1" pageWidth="827" pageHeight="1169" background="none" math="1" shadow="0">
      <root>
        <mxCell id="X5NqExCQtvZxIxQ7pmgY-0" />
        <mxCell id="1" parent="X5NqExCQtvZxIxQ7pmgY-0" />
        <mxCell id="2wufzHYmkr1ou4J7hq5Y-2" value="Active Directory&lt;div&gt;IP: 192.168.10.7&lt;/div&gt;&lt;div&gt;Splunk Universal Forwarder&lt;/div&gt;&lt;div&gt;Sysmon&lt;/div&gt;" style="sketch=0;outlineConnect=0;fontColor=#232F3E;gradientColor=none;fillColor=#232F3D;strokeColor=none;dashed=0;verticalLabelPosition=bottom;verticalAlign=top;align=center;html=1;fontSize=12;fontStyle=0;aspect=fixed;pointerEvents=1;shape=mxgraph.aws4.traditional_server;" vertex="1" parent="1">
          <mxGeometry x="-735" y="645" width="45" height="78" as="geometry" />
        </mxCell>
        <mxCell id="2wufzHYmkr1ou4J7hq5Y-3" value="SJSplunk Server&lt;div&gt;IP: 192.168.10.10&lt;/div&gt;" style="sketch=0;outlineConnect=0;fontColor=#232F3E;gradientColor=none;fillColor=#232F3D;strokeColor=none;dashed=0;verticalLabelPosition=bottom;verticalAlign=top;align=center;html=1;fontSize=12;fontStyle=0;aspect=fixed;pointerEvents=1;shape=mxgraph.aws4.traditional_server;" vertex="1" parent="1">
          <mxGeometry x="-733" y="363" width="45" height="78" as="geometry" />
        </mxCell>
        <mxCell id="2wufzHYmkr1ou4J7hq5Y-4" value="Kali Linux&lt;div&gt;IP: 192.168.10.250&lt;/div&gt;&lt;div&gt;&lt;br&gt;&lt;/div&gt;" style="verticalLabelPosition=bottom;html=1;verticalAlign=top;align=center;strokeColor=#b85450;fillColor=#f8cecc;shape=mxgraph.azure.computer;pointerEvents=1;" vertex="1" parent="1">
          <mxGeometry x="-106" y="521.5" width="50" height="45" as="geometry" />
        </mxCell>
        <mxCell id="2wufzHYmkr1ou4J7hq5Y-5" value="Windows 10&lt;div&gt;IP: DHCP&lt;/div&gt;&lt;div&gt;Splunk Universal Forwader&lt;/div&gt;&lt;div&gt;Sysmon&lt;/div&gt;" style="verticalLabelPosition=bottom;html=1;verticalAlign=top;align=center;strokeColor=none;fillColor=#00BEF2;shape=mxgraph.azure.computer;pointerEvents=1;" vertex="1" parent="1">
          <mxGeometry x="-390" y="736" width="50" height="45" as="geometry" />
        </mxCell>
        <mxCell id="2wufzHYmkr1ou4J7hq5Y-6" value="" style="sketch=0;points=[[0.5,0,0],[1,0.5,0],[0.5,1,0],[0,0.5,0],[0.145,0.145,0],[0.8555,0.145,0],[0.855,0.8555,0],[0.145,0.855,0]];verticalLabelPosition=bottom;html=1;verticalAlign=top;aspect=fixed;align=center;pointerEvents=1;shape=mxgraph.cisco19.rect;prIcon=router;fillColor=#FAFAFA;strokeColor=#005073;" vertex="1" parent="1">
          <mxGeometry x="-390" y="366" width="50" height="50" as="geometry" />
        </mxCell>
        <mxCell id="2wufzHYmkr1ou4J7hq5Y-7" value="Internet" style="ellipse;shape=cloud;whiteSpace=wrap;html=1;" vertex="1" parent="1">
          <mxGeometry x="-425" y="169" width="120" height="80" as="geometry" />
        </mxCell>
        <mxCell id="2wufzHYmkr1ou4J7hq5Y-10" value="" style="sketch=0;points=[[0.015,0.015,0],[0.985,0.015,0],[0.985,0.985,0],[0.015,0.985,0],[0.25,0,0],[0.5,0,0],[0.75,0,0],[1,0.25,0],[1,0.5,0],[1,0.75,0],[0.75,1,0],[0.5,1,0],[0.25,1,0],[0,0.75,0],[0,0.5,0],[0,0.25,0]];verticalLabelPosition=bottom;html=1;verticalAlign=top;aspect=fixed;align=center;pointerEvents=1;shape=mxgraph.cisco19.rect;prIcon=workgroup_switch;fillColor=#FAFAFA;strokeColor=#005073;" vertex="1" parent="1">
          <mxGeometry x="-390" y="519" width="50" height="50" as="geometry" />
        </mxCell>
        <mxCell id="2wufzHYmkr1ou4J7hq5Y-15" style="edgeStyle=orthogonalEdgeStyle;rounded=0;orthogonalLoop=1;jettySize=auto;html=1;entryX=0;entryY=0.75;entryDx=0;entryDy=0;entryPerimeter=0;" edge="1" parent="1" source="2wufzHYmkr1ou4J7hq5Y-2" target="2wufzHYmkr1ou4J7hq5Y-10">
          <mxGeometry relative="1" as="geometry" />
        </mxCell>
        <mxCell id="2wufzHYmkr1ou4J7hq5Y-16" style="edgeStyle=orthogonalEdgeStyle;rounded=0;orthogonalLoop=1;jettySize=auto;html=1;entryX=0;entryY=0.25;entryDx=0;entryDy=0;entryPerimeter=0;" edge="1" parent="1" source="2wufzHYmkr1ou4J7hq5Y-3" target="2wufzHYmkr1ou4J7hq5Y-10">
          <mxGeometry relative="1" as="geometry" />
        </mxCell>
        <mxCell id="2wufzHYmkr1ou4J7hq5Y-17" style="edgeStyle=orthogonalEdgeStyle;rounded=0;orthogonalLoop=1;jettySize=auto;html=1;entryX=0.5;entryY=1;entryDx=0;entryDy=0;entryPerimeter=0;" edge="1" parent="1" source="2wufzHYmkr1ou4J7hq5Y-5" target="2wufzHYmkr1ou4J7hq5Y-10">
          <mxGeometry relative="1" as="geometry" />
        </mxCell>
        <mxCell id="2wufzHYmkr1ou4J7hq5Y-19" style="edgeStyle=orthogonalEdgeStyle;rounded=0;orthogonalLoop=1;jettySize=auto;html=1;entryX=1;entryY=0.5;entryDx=0;entryDy=0;entryPerimeter=0;" edge="1" parent="1" source="2wufzHYmkr1ou4J7hq5Y-4" target="2wufzHYmkr1ou4J7hq5Y-10">
          <mxGeometry relative="1" as="geometry" />
        </mxCell>
        <mxCell id="2wufzHYmkr1ou4J7hq5Y-20" style="edgeStyle=orthogonalEdgeStyle;rounded=0;orthogonalLoop=1;jettySize=auto;html=1;entryX=0.5;entryY=0;entryDx=0;entryDy=0;entryPerimeter=0;" edge="1" parent="1" source="2wufzHYmkr1ou4J7hq5Y-6" target="2wufzHYmkr1ou4J7hq5Y-10">
          <mxGeometry relative="1" as="geometry" />
        </mxCell>
        <mxCell id="2wufzHYmkr1ou4J7hq5Y-21" style="edgeStyle=orthogonalEdgeStyle;rounded=0;orthogonalLoop=1;jettySize=auto;html=1;entryX=0.5;entryY=0;entryDx=0;entryDy=0;entryPerimeter=0;" edge="1" parent="1" source="2wufzHYmkr1ou4J7hq5Y-7" target="2wufzHYmkr1ou4J7hq5Y-6">
          <mxGeometry relative="1" as="geometry" />
        </mxCell>
        <mxCell id="2wufzHYmkr1ou4J7hq5Y-24" value="Network: 192.168.10.0/24&lt;div&gt;Splunk Server: 192.168.10.10&lt;/div&gt;&lt;div&gt;Active Directory: 192.168.10.7&lt;/div&gt;&lt;div&gt;Attacker: 192.168.10.250&lt;/div&gt;" style="text;html=1;align=center;verticalAlign=middle;resizable=0;points=[];autosize=1;fillColor=#ffe6cc;strokeColor=#d79b00;" vertex="1" parent="1">
          <mxGeometry x="-917" y="159" width="179" height="70" as="geometry" />
        </mxCell>
      </root>
    </mxGraphModel>
  </diagram>
</mxfile>
